<?xml version="1.0" encoding="UTF-8" standalone="no"?>
<!DOCTYPE svg PUBLIC "-//W3C//DTD SVG 1.1//EN"
 "http://www.w3.org/Graphics/SVG/1.1/DTD/svg11.dtd">
<!-- Generated by graphviz version 2.40.1 (20161225.0304)
 -->
<!-- Title: attributes Pages: 1 -->
<svg width="141pt" height="243pt"
 viewBox="0.00 0.00 140.87 243.36" xmlns="http://www.w3.org/2000/svg" xmlns:xlink="http://www.w3.org/1999/xlink">
<g id="graph0" class="graph" transform="scale(1 1) rotate(0) translate(4 239.36)">
<title>attributes</title>
<polygon fill="#ffffff" stroke="transparent" points="-4,4 -4,-239.36 136.8676,-239.36 136.8676,4 -4,4"/>
<!-- A -->
<g id="node1" class="node">
<title>A</title>
<ellipse fill="none" stroke="#000000" cx="66.4338" cy="-198.58" rx="36.5613" ry="36.5613"/>
<text text-anchor="middle" x="66.4338" y="-194.38" font-family="Times,serif" font-size="14.00" fill="#000000">Node0</text>
</g>
<!-- B -->
<g id="node2" class="node">
<title>B</title>
<polygon fill="none" stroke="#000000" points="93.4338,-109 39.4338,-109 39.4338,-73 93.4338,-73 93.4338,-109"/>
<text text-anchor="middle" x="66.4338" y="-86.8" font-family="Times,serif" font-size="14.00" fill="#000000">Node1</text>
</g>
<!-- A&#45;&gt;B -->
<g id="edge1" class="edge">
<title>A&#45;&gt;B</title>
<path fill="none" stroke="#ff0000" stroke-dasharray="5,2" d="M66.4338,-161.5571C66.4338,-147.6918 66.4338,-132.175 66.4338,-119.2309"/>
<polygon fill="#ff0000" stroke="#ff0000" points="69.9339,-119.0557 66.4338,-109.0557 62.9339,-119.0558 69.9339,-119.0557"/>
<text text-anchor="middle" x="82.7627" y="-131.2" font-family="Times,serif" font-size="14.00" fill="#ff0000">Line1</text>
</g>
<!-- C -->
<g id="node3" class="node">
<title>C</title>
<polygon fill="#ffff00" stroke="#000000" points="66.4338,-36 .0661,-18 66.4338,0 132.8015,-18 66.4338,-36"/>
<text text-anchor="middle" x="66.4338" y="-13.8" font-family="Times,serif" font-size="14.00" fill="#000000">Diamond</text>
</g>
<!-- B&#45;&gt;C -->
<g id="edge2" class="edge">
<title>B&#45;&gt;C</title>
<path fill="none" stroke="#000000" d="M66.4338,-72.9551C66.4338,-64.8828 66.4338,-55.1764 66.4338,-46.1817"/>
<polygon fill="#000000" stroke="#000000" points="69.9339,-46.0903 66.4338,-36.0904 62.9339,-46.0904 69.9339,-46.0903"/>
<text text-anchor="middle" x="61.3805" y="-60.3551" font-family="Times,serif" font-size="14.00" fill="#000000">Y</text>
</g>
</g>
</svg>
