<?xml version="1.0" encoding="UTF-8" standalone="no"?>
<!DOCTYPE svg PUBLIC "-//W3C//DTD SVG 1.1//EN"
 "http://www.w3.org/Graphics/SVG/1.1/DTD/svg11.dtd">
<!-- Generated by graphviz version 2.40.1 (20161225.0304)
 -->
<!-- Title: sample_rank Pages: 1 -->
<svg width="422pt" height="188pt"
 viewBox="0.00 0.00 422.00 188.00" xmlns="http://www.w3.org/2000/svg" xmlns:xlink="http://www.w3.org/1999/xlink">
<g id="graph0" class="graph" transform="scale(1 1) rotate(0) translate(4 184)">
<title>sample_rank</title>
<polygon fill="#ffffff" stroke="transparent" points="-4,4 -4,-184 418,-184 418,4 -4,4"/>
<!-- A -->
<g id="node1" class="node">
<title>A</title>
<ellipse fill="none" stroke="#000000" cx="63" cy="-162" rx="27" ry="18"/>
<text text-anchor="middle" x="63" y="-157.8" font-family="Times,serif" font-size="14.00" fill="#000000">A</text>
</g>
<!-- B -->
<g id="node2" class="node">
<title>B</title>
<ellipse fill="none" stroke="#000000" cx="135" cy="-162" rx="27" ry="18"/>
<text text-anchor="middle" x="135" y="-157.8" font-family="Times,serif" font-size="14.00" fill="#000000">B</text>
</g>
<!-- A&#45;&gt;B -->
<g id="edge1" class="edge">
<title>A&#45;&gt;B</title>
<path fill="none" stroke="#000000" d="M90,-162C92.6147,-162 95.2295,-162 97.8442,-162"/>
<polygon fill="#000000" stroke="#000000" points="97.9297,-165.5001 107.9297,-162 97.9297,-158.5001 97.9297,-165.5001"/>
</g>
<!-- H -->
<g id="node5" class="node">
<title>H</title>
<ellipse fill="none" stroke="#000000" cx="99" cy="-90" rx="27" ry="18"/>
<text text-anchor="middle" x="99" y="-85.8" font-family="Times,serif" font-size="14.00" fill="#000000">H</text>
</g>
<!-- A&#45;&gt;H -->
<g id="edge7" class="edge">
<title>A&#45;&gt;H</title>
<path fill="none" stroke="#000000" d="M71.7146,-144.5708C75.9597,-136.0807 81.1536,-125.6929 85.8663,-116.2674"/>
<polygon fill="#000000" stroke="#000000" points="89.024,-117.7782 90.3657,-107.2687 82.763,-114.6477 89.024,-117.7782"/>
</g>
<!-- C -->
<g id="node3" class="node">
<title>C</title>
<ellipse fill="none" stroke="#000000" cx="207" cy="-162" rx="27" ry="18"/>
<text text-anchor="middle" x="207" y="-157.8" font-family="Times,serif" font-size="14.00" fill="#000000">C</text>
</g>
<!-- B&#45;&gt;C -->
<g id="edge2" class="edge">
<title>B&#45;&gt;C</title>
<path fill="none" stroke="#000000" d="M162,-162C164.6147,-162 167.2295,-162 169.8442,-162"/>
<polygon fill="#000000" stroke="#000000" points="169.9297,-165.5001 179.9297,-162 169.9297,-158.5001 169.9297,-165.5001"/>
</g>
<!-- D -->
<g id="node6" class="node">
<title>D</title>
<ellipse fill="none" stroke="#000000" cx="171" cy="-90" rx="27" ry="18"/>
<text text-anchor="middle" x="171" y="-85.8" font-family="Times,serif" font-size="14.00" fill="#000000">D</text>
</g>
<!-- C&#45;&gt;D -->
<g id="edge3" class="edge">
<title>C&#45;&gt;D</title>
<path fill="none" stroke="#000000" d="M198.2854,-144.5708C194.0403,-136.0807 188.8464,-125.6929 184.1337,-116.2674"/>
<polygon fill="#000000" stroke="#000000" points="187.237,-114.6477 179.6343,-107.2687 180.976,-117.7782 187.237,-114.6477"/>
</g>
<!-- E -->
<g id="node7" class="node">
<title>E</title>
<ellipse fill="none" stroke="#000000" cx="243" cy="-90" rx="27" ry="18"/>
<text text-anchor="middle" x="243" y="-85.8" font-family="Times,serif" font-size="14.00" fill="#000000">E</text>
</g>
<!-- C&#45;&gt;E -->
<g id="edge14" class="edge">
<title>C&#45;&gt;E</title>
<path fill="none" stroke="#000000" d="M215.7146,-144.5708C219.9597,-136.0807 225.1536,-125.6929 229.8663,-116.2674"/>
<polygon fill="#000000" stroke="#000000" points="233.024,-117.7782 234.3657,-107.2687 226.763,-114.6477 233.024,-117.7782"/>
</g>
<!-- J -->
<g id="node4" class="node">
<title>J</title>
<ellipse fill="none" stroke="#000000" cx="27" cy="-90" rx="27" ry="18"/>
<text text-anchor="middle" x="27" y="-85.8" font-family="Times,serif" font-size="14.00" fill="#000000">J</text>
</g>
<!-- J&#45;&gt;H -->
<g id="edge12" class="edge">
<title>J&#45;&gt;H</title>
<path fill="none" stroke="#000000" d="M54,-90C56.6147,-90 59.2295,-90 61.8442,-90"/>
<polygon fill="#000000" stroke="#000000" points="61.9297,-93.5001 71.9297,-90 61.9297,-86.5001 61.9297,-93.5001"/>
</g>
<!-- H&#45;&gt;C -->
<g id="edge13" class="edge">
<title>H&#45;&gt;C</title>
<path fill="none" stroke="#000000" d="M118.1411,-102.7607C135.1358,-114.0905 160.1752,-130.7835 179.3463,-143.5642"/>
<polygon fill="#000000" stroke="#000000" points="177.4298,-146.493 187.6918,-149.1278 181.3127,-140.6686 177.4298,-146.493"/>
</g>
<!-- H&#45;&gt;D -->
<g id="edge8" class="edge">
<title>H&#45;&gt;D</title>
<path fill="none" stroke="#000000" d="M126,-90C128.6147,-90 131.2295,-90 133.8442,-90"/>
<polygon fill="#000000" stroke="#000000" points="133.9297,-93.5001 143.9297,-90 133.9297,-86.5001 133.9297,-93.5001"/>
</g>
<!-- D&#45;&gt;E -->
<g id="edge4" class="edge">
<title>D&#45;&gt;E</title>
<path fill="none" stroke="#000000" d="M198,-90C200.6147,-90 203.2295,-90 205.8442,-90"/>
<polygon fill="#000000" stroke="#000000" points="205.9297,-93.5001 215.9297,-90 205.9297,-86.5001 205.9297,-93.5001"/>
</g>
<!-- I -->
<g id="node10" class="node">
<title>I</title>
<ellipse fill="none" stroke="#000000" cx="207" cy="-18" rx="27" ry="18"/>
<text text-anchor="middle" x="207" y="-13.8" font-family="Times,serif" font-size="14.00" fill="#000000">I</text>
</g>
<!-- D&#45;&gt;I -->
<g id="edge9" class="edge">
<title>D&#45;&gt;I</title>
<path fill="none" stroke="#000000" d="M179.7146,-72.5708C183.9597,-64.0807 189.1536,-53.6929 193.8663,-44.2674"/>
<polygon fill="#000000" stroke="#000000" points="197.024,-45.7782 198.3657,-35.2687 190.763,-42.6477 197.024,-45.7782"/>
</g>
<!-- F -->
<g id="node8" class="node">
<title>F</title>
<ellipse fill="none" stroke="#000000" cx="315" cy="-90" rx="27" ry="18"/>
<text text-anchor="middle" x="315" y="-85.8" font-family="Times,serif" font-size="14.00" fill="#000000">F</text>
</g>
<!-- E&#45;&gt;F -->
<g id="edge5" class="edge">
<title>E&#45;&gt;F</title>
<path fill="none" stroke="#000000" d="M270,-90C272.6147,-90 275.2295,-90 277.8442,-90"/>
<polygon fill="#000000" stroke="#000000" points="277.9297,-93.5001 287.9297,-90 277.9297,-86.5001 277.9297,-93.5001"/>
</g>
<!-- G -->
<g id="node9" class="node">
<title>G</title>
<ellipse fill="none" stroke="#000000" cx="387" cy="-90" rx="27" ry="18"/>
<text text-anchor="middle" x="387" y="-85.8" font-family="Times,serif" font-size="14.00" fill="#000000">G</text>
</g>
<!-- E&#45;&gt;G -->
<g id="edge11" class="edge">
<title>E&#45;&gt;G</title>
<path fill="none" stroke="#000000" d="M257.217,-105.5681C265.3696,-113.3189 276.2933,-121.8935 288,-126 310.6471,-133.9442 319.3529,-133.9442 342,-126 350.2313,-123.1126 358.0754,-118.0163 364.8414,-112.5505"/>
<polygon fill="#000000" stroke="#000000" points="367.584,-114.7996 372.783,-105.5681 362.9619,-109.5426 367.584,-114.7996"/>
</g>
<!-- K -->
<g id="node11" class="node">
<title>K</title>
<ellipse fill="none" stroke="#000000" cx="279" cy="-18" rx="27" ry="18"/>
<text text-anchor="middle" x="279" y="-13.8" font-family="Times,serif" font-size="14.00" fill="#000000">K</text>
</g>
<!-- E&#45;&gt;K -->
<g id="edge15" class="edge">
<title>E&#45;&gt;K</title>
<path fill="none" stroke="#000000" d="M251.7146,-72.5708C255.9597,-64.0807 261.1536,-53.6929 265.8663,-44.2674"/>
<polygon fill="#000000" stroke="#000000" points="269.024,-45.7782 270.3657,-35.2687 262.763,-42.6477 269.024,-45.7782"/>
</g>
<!-- F&#45;&gt;G -->
<g id="edge6" class="edge">
<title>F&#45;&gt;G</title>
<path fill="none" stroke="#000000" d="M342,-90C344.6147,-90 347.2295,-90 349.8442,-90"/>
<polygon fill="#000000" stroke="#000000" points="349.9297,-93.5001 359.9297,-90 349.9297,-86.5001 349.9297,-93.5001"/>
</g>
<!-- I&#45;&gt;E -->
<g id="edge10" class="edge">
<title>I&#45;&gt;E</title>
<path fill="none" stroke="#000000" d="M215.6343,-35.2687C219.8674,-43.7348 225.0583,-54.1166 229.777,-63.554"/>
<polygon fill="#000000" stroke="#000000" points="226.6827,-65.1918 234.2854,-72.5708 232.9437,-62.0613 226.6827,-65.1918"/>
</g>
<!-- I&#45;&gt;K -->
<g id="edge16" class="edge">
<title>I&#45;&gt;K</title>
<path fill="none" stroke="#000000" d="M234,-18C236.6147,-18 239.2295,-18 241.8442,-18"/>
<polygon fill="#000000" stroke="#000000" points="241.9297,-21.5001 251.9297,-18 241.9297,-14.5001 241.9297,-21.5001"/>
</g>
<!-- K&#45;&gt;G -->
<g id="edge17" class="edge">
<title>K&#45;&gt;G</title>
<path fill="none" stroke="#000000" d="M298.1411,-30.7607C315.1358,-42.0905 340.1752,-58.7835 359.3463,-71.5642"/>
<polygon fill="#000000" stroke="#000000" points="357.4298,-74.493 367.6918,-77.1278 361.3127,-68.6686 357.4298,-74.493"/>
</g>
</g>
</svg>
