<?xml version="1.0" encoding="UTF-8" standalone="no"?>
<!DOCTYPE svg PUBLIC "-//W3C//DTD SVG 1.1//EN"
 "http://www.w3.org/Graphics/SVG/1.1/DTD/svg11.dtd">
<!-- Generated by graphviz version 2.40.1 (20161225.0304)
 -->
<!-- Title: subgraphs Pages: 1 -->
<svg width="166pt" height="204pt"
 viewBox="0.00 0.00 166.00 204.00" xmlns="http://www.w3.org/2000/svg" xmlns:xlink="http://www.w3.org/1999/xlink">
<g id="graph0" class="graph" transform="scale(1 1) rotate(0) translate(4 200)">
<title>subgraphs</title>
<polygon fill="#ffffff" stroke="transparent" points="-4,4 -4,-200 162,-200 162,4 -4,4"/>
<g id="clust3" class="cluster">
<title>cluster_DE</title>
<polygon fill="none" stroke="#000000" points="8,-8 8,-60 150,-60 150,-8 8,-8"/>
</g>
<!-- A -->
<g id="node1" class="node">
<title>A</title>
<ellipse fill="none" stroke="#000000" cx="79" cy="-178" rx="27" ry="18"/>
<text text-anchor="middle" x="79" y="-173.8" font-family="Times,serif" font-size="14.00" fill="#000000">A</text>
</g>
<!-- B -->
<g id="node2" class="node">
<title>B</title>
<ellipse fill="none" stroke="#000000" cx="43" cy="-106" rx="27" ry="18"/>
<text text-anchor="middle" x="43" y="-101.8" font-family="Times,serif" font-size="14.00" fill="#000000">B</text>
</g>
<!-- A&#45;&gt;B -->
<g id="edge1" class="edge">
<title>A&#45;&gt;B</title>
<path fill="none" stroke="#000000" d="M70.2854,-160.5708C66.0403,-152.0807 60.8464,-141.6929 56.1337,-132.2674"/>
<polygon fill="#000000" stroke="#000000" points="59.237,-130.6477 51.6343,-123.2687 52.976,-133.7782 59.237,-130.6477"/>
</g>
<!-- C -->
<g id="node3" class="node">
<title>C</title>
<ellipse fill="none" stroke="#000000" cx="115" cy="-106" rx="27" ry="18"/>
<text text-anchor="middle" x="115" y="-101.8" font-family="Times,serif" font-size="14.00" fill="#000000">C</text>
</g>
<!-- A&#45;&gt;C -->
<g id="edge2" class="edge">
<title>A&#45;&gt;C</title>
<path fill="none" stroke="#000000" d="M87.7146,-160.5708C91.9597,-152.0807 97.1536,-141.6929 101.8663,-132.2674"/>
<polygon fill="#000000" stroke="#000000" points="105.024,-133.7782 106.3657,-123.2687 98.763,-130.6477 105.024,-133.7782"/>
</g>
<!-- D -->
<g id="node4" class="node">
<title>D</title>
<ellipse fill="none" stroke="#000000" cx="43" cy="-34" rx="27" ry="18"/>
<text text-anchor="middle" x="43" y="-29.8" font-family="Times,serif" font-size="14.00" fill="#000000">D</text>
</g>
<!-- B&#45;&gt;D -->
<g id="edge3" class="edge">
<title>B&#45;&gt;D</title>
<path fill="none" stroke="#000000" d="M43,-87.8314C43,-80.131 43,-70.9743 43,-62.4166"/>
<polygon fill="#000000" stroke="#000000" points="46.5001,-62.4132 43,-52.4133 39.5001,-62.4133 46.5001,-62.4132"/>
</g>
<!-- E -->
<g id="node5" class="node">
<title>E</title>
<ellipse fill="none" stroke="#000000" cx="115" cy="-34" rx="27" ry="18"/>
<text text-anchor="middle" x="115" y="-29.8" font-family="Times,serif" font-size="14.00" fill="#000000">E</text>
</g>
<!-- C&#45;&gt;E -->
<g id="edge4" class="edge">
<title>C&#45;&gt;E</title>
<path fill="none" stroke="#000000" d="M115,-87.8314C115,-80.131 115,-70.9743 115,-62.4166"/>
<polygon fill="#000000" stroke="#000000" points="118.5001,-62.4132 115,-52.4133 111.5001,-62.4133 118.5001,-62.4132"/>
</g>
</g>
</svg>
