<?xml version="1.0" encoding="UTF-8" standalone="no"?>
<!DOCTYPE svg PUBLIC "-//W3C//DTD SVG 1.1//EN"
 "http://www.w3.org/Graphics/SVG/1.1/DTD/svg11.dtd">
<!-- Generated by graphviz version 2.40.1 (20161225.0304)
 -->
<!-- Title: sample_rank Pages: 1 -->
<svg width="692pt" height="141pt"
 viewBox="0.00 0.00 692.00 141.00" xmlns="http://www.w3.org/2000/svg" xmlns:xlink="http://www.w3.org/1999/xlink">
<g id="graph0" class="graph" transform="scale(1 1) rotate(0) translate(4 137)">
<title>sample_rank</title>
<polygon fill="#ffffff" stroke="transparent" points="-4,4 -4,-137 688,-137 688,4 -4,4"/>
<!-- A -->
<g id="node1" class="node">
<title>A</title>
<ellipse fill="none" stroke="#000000" cx="27" cy="-115" rx="27" ry="18"/>
<text text-anchor="middle" x="27" y="-110.8" font-family="Times,serif" font-size="14.00" fill="#000000">A</text>
</g>
<!-- B -->
<g id="node2" class="node">
<title>B</title>
<ellipse fill="none" stroke="#000000" cx="117" cy="-115" rx="27" ry="18"/>
<text text-anchor="middle" x="117" y="-110.8" font-family="Times,serif" font-size="14.00" fill="#000000">B</text>
</g>
<!-- A&#45;&gt;B -->
<g id="edge1" class="edge">
<title>A&#45;&gt;B</title>
<path fill="none" stroke="#000000" d="M54.003,-115C62.0277,-115 70.9665,-115 79.5309,-115"/>
<polygon fill="#000000" stroke="#000000" points="79.7051,-118.5001 89.705,-115 79.705,-111.5001 79.7051,-118.5001"/>
</g>
<!-- H -->
<g id="node8" class="node">
<title>H</title>
<ellipse fill="none" stroke="#000000" cx="117" cy="-61" rx="27" ry="18"/>
<text text-anchor="middle" x="117" y="-56.8" font-family="Times,serif" font-size="14.00" fill="#000000">H</text>
</g>
<!-- A&#45;&gt;H -->
<g id="edge7" class="edge">
<title>A&#45;&gt;H</title>
<path fill="none" stroke="#000000" d="M47.4224,-102.7466C59.3897,-95.5662 74.7024,-86.3785 87.9143,-78.4514"/>
<polygon fill="#000000" stroke="#000000" points="89.8842,-81.3512 96.6584,-73.2049 86.2827,-75.3487 89.8842,-81.3512"/>
</g>
<!-- C -->
<g id="node3" class="node">
<title>C</title>
<ellipse fill="none" stroke="#000000" cx="207" cy="-107" rx="27" ry="18"/>
<text text-anchor="middle" x="207" y="-102.8" font-family="Times,serif" font-size="14.00" fill="#000000">C</text>
</g>
<!-- B&#45;&gt;C -->
<g id="edge2" class="edge">
<title>B&#45;&gt;C</title>
<path fill="none" stroke="#000000" d="M144.003,-112.5997C152.1903,-111.872 161.3292,-111.0596 170.051,-110.2844"/>
<polygon fill="#000000" stroke="#000000" points="170.3653,-113.7703 180.0161,-109.3986 169.7454,-106.7978 170.3653,-113.7703"/>
</g>
<!-- D -->
<g id="node4" class="node">
<title>D</title>
<ellipse fill="none" stroke="#000000" cx="297" cy="-61" rx="27" ry="18"/>
<text text-anchor="middle" x="297" y="-56.8" font-family="Times,serif" font-size="14.00" fill="#000000">D</text>
</g>
<!-- C&#45;&gt;D -->
<g id="edge3" class="edge">
<title>C&#45;&gt;D</title>
<path fill="none" stroke="#000000" d="M228.7865,-95.8647C240.0625,-90.1014 254.0163,-82.9694 266.3599,-76.6605"/>
<polygon fill="#000000" stroke="#000000" points="268.1027,-79.7005 275.4141,-72.0328 264.9169,-73.4674 268.1027,-79.7005"/>
</g>
<!-- E -->
<g id="node5" class="node">
<title>E</title>
<ellipse fill="none" stroke="#000000" cx="477" cy="-70" rx="27" ry="18"/>
<text text-anchor="middle" x="477" y="-65.8" font-family="Times,serif" font-size="14.00" fill="#000000">E</text>
</g>
<!-- C&#45;&gt;E -->
<g id="edge14" class="edge">
<title>C&#45;&gt;E</title>
<path fill="none" stroke="#000000" d="M233.8045,-103.4391C273.2738,-98.1811 349.3455,-87.9908 414,-79 422.4802,-77.8208 431.599,-76.5308 440.1929,-75.3051"/>
<polygon fill="#000000" stroke="#000000" points="440.9335,-78.7349 450.3369,-73.8538 439.942,-71.8055 440.9335,-78.7349"/>
</g>
<!-- D&#45;&gt;E -->
<g id="edge4" class="edge">
<title>D&#45;&gt;E</title>
<path fill="none" stroke="#000000" d="M323.9478,-62.3474C354.7002,-63.885 405.1902,-66.4095 439.7079,-68.1354"/>
<polygon fill="#000000" stroke="#000000" points="439.7056,-71.6396 449.868,-68.6434 440.0553,-64.6483 439.7056,-71.6396"/>
</g>
<!-- I -->
<g id="node9" class="node">
<title>I</title>
<ellipse fill="none" stroke="#000000" cx="387" cy="-23" rx="27" ry="18"/>
<text text-anchor="middle" x="387" y="-18.8" font-family="Times,serif" font-size="14.00" fill="#000000">I</text>
</g>
<!-- D&#45;&gt;I -->
<g id="edge9" class="edge">
<title>D&#45;&gt;I</title>
<path fill="none" stroke="#000000" d="M320.1772,-51.2141C330.6752,-46.7816 343.2638,-41.4664 354.67,-36.6504"/>
<polygon fill="#000000" stroke="#000000" points="356.0502,-39.8669 363.9013,-32.7528 353.3274,-33.4182 356.0502,-39.8669"/>
</g>
<!-- F -->
<g id="node6" class="node">
<title>F</title>
<ellipse fill="none" stroke="#000000" cx="567" cy="-72" rx="27" ry="18"/>
<text text-anchor="middle" x="567" y="-67.8" font-family="Times,serif" font-size="14.00" fill="#000000">F</text>
</g>
<!-- E&#45;&gt;F -->
<g id="edge5" class="edge">
<title>E&#45;&gt;F</title>
<path fill="none" stroke="#000000" d="M504.003,-70.6001C512.0277,-70.7784 520.9665,-70.977 529.5309,-71.1674"/>
<polygon fill="#000000" stroke="#000000" points="529.6297,-74.6703 539.705,-71.3934 529.7853,-67.672 529.6297,-74.6703"/>
</g>
<!-- G -->
<g id="node7" class="node">
<title>G</title>
<ellipse fill="none" stroke="#000000" cx="657" cy="-72" rx="27" ry="18"/>
<text text-anchor="middle" x="657" y="-67.8" font-family="Times,serif" font-size="14.00" fill="#000000">G</text>
</g>
<!-- E&#45;&gt;G -->
<g id="edge11" class="edge">
<title>E&#45;&gt;G</title>
<path fill="none" stroke="#000000" d="M497.2088,-82.026C509.1951,-88.4513 524.9451,-95.7013 540,-99 563.4438,-104.1368 570.4901,-103.8256 594,-99 605.1303,-96.7154 616.7221,-92.3789 626.8828,-87.8389"/>
<polygon fill="#000000" stroke="#000000" points="628.5702,-90.913 636.1242,-83.4842 625.5863,-84.5808 628.5702,-90.913"/>
</g>
<!-- K -->
<g id="node11" class="node">
<title>K</title>
<ellipse fill="none" stroke="#000000" cx="567" cy="-18" rx="27" ry="18"/>
<text text-anchor="middle" x="567" y="-13.8" font-family="Times,serif" font-size="14.00" fill="#000000">K</text>
</g>
<!-- E&#45;&gt;K -->
<g id="edge15" class="edge">
<title>E&#45;&gt;K</title>
<path fill="none" stroke="#000000" d="M497.4224,-58.2004C509.3055,-51.3346 524.4869,-42.5631 537.6349,-34.9665"/>
<polygon fill="#000000" stroke="#000000" points="539.4392,-37.9663 546.3469,-29.9329 535.9372,-31.9052 539.4392,-37.9663"/>
</g>
<!-- F&#45;&gt;G -->
<g id="edge6" class="edge">
<title>F&#45;&gt;G</title>
<path fill="none" stroke="#000000" d="M594.003,-72C602.0277,-72 610.9665,-72 619.5309,-72"/>
<polygon fill="#000000" stroke="#000000" points="619.7051,-75.5001 629.705,-72 619.705,-68.5001 619.7051,-75.5001"/>
</g>
<!-- H&#45;&gt;C -->
<g id="edge13" class="edge">
<title>H&#45;&gt;C</title>
<path fill="none" stroke="#000000" d="M138.7865,-72.1353C150.0625,-77.8986 164.0163,-85.0306 176.3599,-91.3395"/>
<polygon fill="#000000" stroke="#000000" points="174.9169,-94.5326 185.4141,-95.9672 178.1027,-88.2995 174.9169,-94.5326"/>
</g>
<!-- H&#45;&gt;D -->
<g id="edge8" class="edge">
<title>H&#45;&gt;D</title>
<path fill="none" stroke="#000000" d="M144.3381,-61C175.1765,-61 225.5008,-61 259.8771,-61"/>
<polygon fill="#000000" stroke="#000000" points="259.9944,-64.5001 269.9944,-61 259.9943,-57.5001 259.9944,-64.5001"/>
</g>
<!-- I&#45;&gt;E -->
<g id="edge10" class="edge">
<title>I&#45;&gt;E</title>
<path fill="none" stroke="#000000" d="M408.3287,-34.1383C419.6784,-40.0654 433.8366,-47.4591 446.3438,-53.9907"/>
<polygon fill="#000000" stroke="#000000" points="445.0282,-57.2521 455.5125,-58.7787 448.2685,-51.0472 445.0282,-57.2521"/>
</g>
<!-- I&#45;&gt;K -->
<g id="edge16" class="edge">
<title>I&#45;&gt;K</title>
<path fill="none" stroke="#000000" d="M414.3381,-22.2406C445.1765,-21.384 495.5008,-19.9861 529.8771,-19.0312"/>
<polygon fill="#000000" stroke="#000000" points="530.0955,-22.5266 539.9944,-18.7502 529.901,-15.5293 530.0955,-22.5266"/>
</g>
<!-- J -->
<g id="node10" class="node">
<title>J</title>
<ellipse fill="none" stroke="#000000" cx="27" cy="-61" rx="27" ry="18"/>
<text text-anchor="middle" x="27" y="-56.8" font-family="Times,serif" font-size="14.00" fill="#000000">J</text>
</g>
<!-- J&#45;&gt;H -->
<g id="edge12" class="edge">
<title>J&#45;&gt;H</title>
<path fill="none" stroke="#000000" d="M54.003,-61C62.0277,-61 70.9665,-61 79.5309,-61"/>
<polygon fill="#000000" stroke="#000000" points="79.7051,-64.5001 89.705,-61 79.705,-57.5001 79.7051,-64.5001"/>
</g>
<!-- K&#45;&gt;G -->
<g id="edge17" class="edge">
<title>K&#45;&gt;G</title>
<path fill="none" stroke="#000000" d="M587.4224,-30.2534C599.3897,-37.4338 614.7024,-46.6215 627.9143,-54.5486"/>
<polygon fill="#000000" stroke="#000000" points="626.2827,-57.6513 636.6584,-59.7951 629.8842,-51.6488 626.2827,-57.6513"/>
</g>
</g>
</svg>
